<svg version="1.2" xmlns="http://www.w3.org/2000/svg" viewBox="0 0 96 96" width="96" height="96"><style>.a{fill:#9f6ceb}.b{fill:#fff;stroke:#fff;stroke-miterlimit:100}</style><path class="a" d="m4 15c0-6.1 4.9-11 11-11h66c6.1 0 11 4.9 11 11v66c0 6.1-4.9 11-11 11h-66c-6.1 0-11-4.9-11-11z"/><path class="b" d="m35.2 59.9c0 0-7.9 19.5 1 24.3 8.9 4.9 14.1-1 16.6-9.2 1.9-6.7 14.8-13.7 23.5-11.6 8.1 1.9 14.6-9.5 5-14.8-10.9-6-16.3-5.9-16.3-5.9 0 0-11.8-4.7-20.9 2.8-8.3 6.8-8.9 14.4-8.9 14.4z"/><path class="b" d="m28 71.1c-2 2.2-6.2 1.9-9.3-0.9-3.1-2.7-4-6.8-2-9.1 2.1-2.2 6.2-1.9 9.3 0.9 3.1 2.7 4 6.8 2 9.1z"/><path class="b" d="m30.1 49.1c-3.3 2-8.8-1.2-12.4-7.1-3.6-5.9-3.9-12.3-0.5-14.3 3.3-2 8.8 1.2 12.4 7.1 3.6 5.9 3.9 12.3 0.5 14.3z"/><path class="b" d="m51.8 34.7c-3.7 2.3-9.8-0.8-13.5-6.9-3.8-6.2-3.7-13 0-15.3 3.8-2.3 9.9 0.8 13.6 6.9 3.8 6.2 3.7 13-0.1 15.3z"/><path class="b" d="m75.8 40.5c-3.5 0.4-6.9-3.5-7.5-8.7-0.6-5.2 1.8-9.8 5.4-10.2 3.6-0.4 6.9 3.5 7.5 8.7 0.6 5.2-1.8 9.8-5.4 10.2z"/></svg>